# xmcd
# 
# Track frame offsets:
#     150
#     23678
#     80887
#     131432
#     145477
#     179473
#     242425
#     265718
#     315758
# 
# Disc length: 4430
# 
# Revision: 1
# Processed by: cddbd v1.5.2PL0 Copyright (c) Steve Scherf et al.
# Submitted via: BonkEnc v1.0.15
# 
DISCID=6f114c09
DTITLE=Trio Stendhal - Live
DYEAR=1993
DGENRE=Jazz
TTITLE0=Last Song
TTITLE1=Earthsound
TTITLE2=Theme frpm Angela
TTITLE3=E Bossa
TTITLE4=Journey into Night
TTITLE5=Song for V.M.
TTITLE6=Caravans
TTITLE7=Pagan dance
TTITLE8=Lullaby for All Children
EXTD=YEAR: 1993
EXTT0=
EXTT1=
EXTT2=
EXTT3=
EXTT4=
EXTT5=
EXTT6=
EXTT7=
EXTT8=
PLAYORDER=
